<svg id="Layer_1" data-name="Layer 1" xmlns="http://www.w3.org/2000/svg" viewBox="0 0 713.93 979.99"><defs><style>.cls-1{fill:#fff;}</style></defs><title>bellicon</title><path class="cls-1" d="M736,960.7c-8,.32-12.87,4.47-15.52,11.8a56.88,56.88,0,0,0-2.81,12.12c-2.29,17.28-8.4,32.63-21.16,45.15-21.22,20.81-55.83,27.1-80.64,14-23.74-12.52-36.68-32.53-40.15-58.93-.83-6.37-2.55-12.39-6.67-17.47s-9.43-8-16.16-6.86c-7.45,1.27-12.84,5.25-15.17,12.73a37.65,37.65,0,0,0-1.35,13.35c2.66,47,39,89.87,85.07,100.48,3.76.86,7.84.59,11.23,2.91h26c.23-1.14,1.15-.92,1.93-1,48.76-5.63,90.85-48.15,95.83-97,.73-7.13.76-14.33-2.63-21C750.13,963.72,744.24,960.38,736,960.7Z" transform="translate(-290.76 -110)"/><path class="cls-1" d="M1004.69,922.66c-1-1.75-1.47-2.64-2-3.45-27.62-39.74-44.25-84.14-56-130.73C931.16,727.27,923.09,665,917.81,602.21c-4.32-51.31-6.73-102.73-9.36-154.15-1-19.11-2.41-38.19-7.67-56.78-31.33-110.9-123-177.71-221.18-190.08-7.71-1-7.6-.94-7.89-8.62-.81-22.31-.54-44.67-3.05-66.89-.95-8.41-5.15-13.16-13-15.08-6.76-1.66-12.81.23-18.39,4.08a10.52,10.52,0,0,0-4.83,8.71c-1.45,22.65-.66,45.32-.88,68-.07,7.91,0,7.73-7.81,8.64-21.35,2.51-42.39,6.62-62.83,13.35-58.67,19.33-103.56,56.52-137,107.71-22.62,34.68-36.1,72.92-38.48,114.55-1.83,31.94-3.08,63.9-4.65,95.85-3.14,63.93-9.15,127.55-20.17,190.64-6.53,37.37-14.65,74.35-26.92,110.34-9.71,28.47-23.49,54.93-38.69,80.75-1.73,2.93-3.62,5.88-4.32,9.77C528.65,923.68,766.21,923,1004.69,922.66Zm-645.54-45.9C380.1,827.11,392,775,400.77,722.1c11-66.31,16.62-133.14,20.17-200.2,1.56-29.62,2.13-59.28,4.44-88.86,3-38.3,17.42-72.25,39.86-102.81,34.33-46.77,80.29-75.93,137.09-87.83,18.93-4,38.09-3,57.26-2.43a211.23,211.23,0,0,1,119.93,41.22c49,35.72,78.65,84.29,87.68,144.5,3.35,22.37,3.51,45.16,4.41,67.8,2.32,58.61,6,117.13,13.28,175.35,6.61,52.53,15.58,104.62,30.73,155.48,5.31,17.85,11.88,35.24,18.63,52.57,1.45,3.75.72,5-3.19,5.34-15.45,1.49-30.94,1.68-46.43,1.7q-121,.11-242,0H364.2C356.29,884,356.16,883.84,359.15,876.76Z" transform="translate(-290.76 -110)"/></svg>