<svg id="Layer_1" data-name="Layer 1" xmlns="http://www.w3.org/2000/svg" viewBox="0 0 496.07 416.56"><defs><style>.cls-1{fill:red;}.cls-2{fill:#fff;}</style></defs><title>bticon</title><path class="cls-1" d="M554.68,762.11a6.57,6.57,0,0,1-2.43-1.53q-30.81-27.69-61.93-55a7.83,7.83,0,0,1-2.84-6.57q.11-61.53,0-123.05c0-3.4.71-4.7,4.42-4.66q25.42.29,50.85,0c3.74,0,4.42,1.29,4.4,4.66-.14,20.68,0,41.36-.09,62,0,4.49,2.12,7.56,6.18,8.9a8.31,8.31,0,0,0,1.13.26l-.27-92.64h-59.8c-7.55,0-7.81,0-6.64-7.64,4-26,17.3-45.23,42-55.47a66.45,66.45,0,0,1,24.2-4.93l0-16.91c-1.76-.79-1.68-2.89-2.26-4.42-11.09-28.93-25.74-55.51-49.74-76a85.78,85.78,0,0,0-20.67-12.59h-4.07c-8.65,6.67-8.08,12.73,1.81,17.71,14.39,7.24,24.71,18.86,33.62,31.78a190.66,190.66,0,0,1,23.27,45.8C517.47,476.25,501.88,485.25,490,500s-19,31.54-19,50.79c0,3.37-1.2,3.86-4.1,3.79-7.29-.18-14.59-.19-21.87,0-2.86.08-4.54-.91-6.24-3.19Q404.12,505,369.28,458.69c-6.2-8.25-10.59-8.43-17.32-.76V464c23.18,30.8,46.23,61.69,69.56,92.38,13.48,17.72,6.78,14.64,29.69,14.93,5.42.07,10.85.13,16.26,0,2.61-.08,3.56.68,3.48,3.41-.19,6.26-.19,12.54,0,18.8.09,2.79-1,3.4-3.53,3.37-9.15-.12-18.3.21-27.44-.14-5.84-.22-9.33,2.12-12.2,7.1-17.14,29.75-34.59,59.33-51.7,89.1-2.32,4-4.79,6.08-9.45,5.36a23.06,23.06,0,0,0-5.57,0c-3.78.34-6.88,1.77-8.16,5.72,0,1.78-.07,3.56-.11,5.34,1.37,4.35,4.53,6,8.89,6,4.57,0,9.15-.18,13.71,0,5,.25,8.2-1.8,10.69-6.09,17.55-30.3,35.32-60.46,52.77-90.81,2.18-3.79,4.47-5.16,8.72-4.91,6.42.37,12.87.23,19.3,0,2.93-.09,4.18.45,4.11,3.81-.23,10.66-.19,21.34,0,32,0,2.54-1.08,4-2.68,5.63-14.4,14.33-28.69,28.78-43.2,43-4.15,4.06-5.71,8-4.14,14,5.54,20.92,10.56,42,15.74,63,1,4.21,3.59,6.76,7.85,7.59,7.56-1.06,10.26-5,8.46-12.26-4.72-18.85-9.35-37.73-14.15-56.56-.8-3.11-.38-5.24,2-7.6,9.76-9.57,19.27-19.39,30-30.27,0,10.23.25,18.92-.09,27.58-.21,5.24,1.65,8.87,5.54,12.29,23.52,20.65,46.87,41.5,70.29,62.28,2,1.79,3.91,3.75,6.59,4.59l1.52,0Z" transform="translate(-351.96 -376.55)"/><path class="cls-2" d="M807.12,609.48a101.53,101.53,0,0,1,29.71,34.83,96.91,96.91,0,0,1,11.21,46,99.11,99.11,0,0,1-8,39.94,107,107,0,0,1-21.92,32.64,101.1,101.1,0,0,1-32.63,22.16,99.9,99.9,0,0,1-39.7,8h-71.6l-31.66-59.42H746.72A24.73,24.73,0,0,0,759.63,730a39.86,39.86,0,0,0,10.47-9,45,45,0,0,0,7.07-12.18,37.14,37.14,0,0,0,2.67-13.64,40.26,40.26,0,0,0-2.67-14.36,38.79,38.79,0,0,0-7.55-12.42,43.64,43.64,0,0,0-11-8.77,26.11,26.11,0,0,0-12.91-3.41H623.5V793.1H555.31V451.67H721.4a99.65,99.65,0,0,1,39.69,8,102,102,0,0,1,54.56,54.55,99.86,99.86,0,0,1,8,39.7,97.3,97.3,0,0,1-4.38,29.46A108.92,108.92,0,0,1,807.12,609.48ZM721.4,588.54a27.54,27.54,0,0,0,12.91-3.17,41.46,41.46,0,0,0,11-8.28,35.8,35.8,0,0,0,7.55-12.18,42.51,42.51,0,0,0,0-29.71,38.83,38.83,0,0,0-7.55-12.42,39.57,39.57,0,0,0-11-8.52,27.66,27.66,0,0,0-12.91-3.17H623.5v77.45Z" transform="translate(-351.96 -376.55)"/></svg>