<svg id="Layer_1" data-name="Layer 1" xmlns="http://www.w3.org/2000/svg" viewBox="0 0 616.01 616.01"><defs><style>.cls-1{fill:#fff;}.cls-2{fill:red;}</style></defs><title>menu</title><circle class="cls-1" cx="308" cy="308" r="308"/><path class="cls-2" d="M734.73,581.38H464.57a13.51,13.51,0,0,1,0-27H734.73a13.51,13.51,0,0,1,0,27Z" transform="translate(-292 -334.76)"/><path class="cls-2" d="M734.73,662.42H464.57a13.51,13.51,0,1,1,0-27H734.73a13.51,13.51,0,1,1,0,27Z" transform="translate(-292 -334.76)"/><path class="cls-2" d="M734.73,743.47H464.57a13.51,13.51,0,1,1,0-27H734.73a13.51,13.51,0,1,1,0,27Z" transform="translate(-292 -334.76)"/></svg>