<svg id="Layer_1" data-name="Layer 1" xmlns="http://www.w3.org/2000/svg" viewBox="0 0 18 20"><defs><style>.cls-1{fill:#fff;}</style></defs><title>trash</title><path class="cls-1" d="M9,4V3a1,1,0,0,1,1-1h4a1,1,0,0,1,1,1V4h4a2,2,0,0,1,2,2V7a2,2,0,0,1-2,2h-.13l-.68,10.2a3,3,0,0,1-3,2.8H8.83a3,3,0,0,1-3-2.8L5.14,9H5A2,2,0,0,1,3,7V6A2,2,0,0,1,5,4ZM19,6H5V7H19ZM7.14,9l.69,10.07a1,1,0,0,0,1,.93h6.36a1,1,0,0,0,1-.93L16.86,9ZM10,10a1,1,0,0,1,1,1v7a1,1,0,0,1-2,0V11A1,1,0,0,1,10,10Zm4,0a1,1,0,0,1,1,1v7a1,1,0,0,1-2,0V11A1,1,0,0,1,14,10Z" transform="translate(-3 -2)"/></svg>