<svg id="Layer_1" data-name="Layer 1" xmlns="http://www.w3.org/2000/svg" viewBox="0 0 375.15 281.38"><defs><style>.cls-1{fill:red;}.cls-2{fill:#fff;}</style></defs><title>users</title><path class="cls-1" d="M185.4,140.67H-20.93a28.17,28.17,0,0,1-28.14-28.13c0-.9.21-22.33,17.33-43.43C-21.89,57-8.46,47.39,8.18,40.56c20.09-8.25,45-12.41,74.05-12.41s54,4.18,74.06,12.41C172.93,47.39,186.36,57,196.2,69.11c17.15,21.1,17.34,42.53,17.34,43.43A28.17,28.17,0,0,1,185.4,140.67ZM-30.31,112.59a9.37,9.37,0,0,0,9.38,9.32H185.4a9.38,9.38,0,0,0,9.38-9.32c0-.65-.6-16.79-13.86-32.52C162.65,58.36,128.53,46.9,82.23,46.9S1.82,58.38-16.45,80.07C-29.71,95.82-30.29,111.94-30.31,112.59Z" transform="translate(161.61 140.69)"/><path class="cls-1" d="M82.23,9.37a75.1,75.1,0,0,1-75-75,75.1,75.1,0,0,1,75-75,75.1,75.1,0,0,1,75,75A75.1,75.1,0,0,1,82.23,9.37Zm0-131.3A56.34,56.34,0,0,0,26-65.66,56.34,56.34,0,0,0,82.23-9.39a56.35,56.35,0,0,0,56.28-56.27A56.34,56.34,0,0,0,82.23-121.93Z" transform="translate(161.61 140.69)"/><path class="cls-2" d="M-77.21,140.67h-56.27a28.16,28.16,0,0,1-28.13-28.13c0-.7.15-17.39,12.43-33.77,7.09-9.47,16.77-16.95,28.76-22.28,14.33-6.38,32-9.61,52.61-9.61,3.36,0,6.68.1,9.89.27A9.39,9.39,0,0,1-49,57a9.37,9.37,0,0,1-9.87,8.88c-2.87-.15-5.85-.23-8.87-.23-73,0-75,44.62-75,47a9.38,9.38,0,0,0,9.38,9.32h56.27a9.38,9.38,0,0,1,9.38,9.38,9.38,9.38,0,0,1-9.38,9.38Z" transform="translate(161.61 140.69)"/><path class="cls-2" d="M-67.83,28.13A56.35,56.35,0,0,1-124.1-28.15,56.34,56.34,0,0,1-67.83-84.42,56.35,56.35,0,0,1-11.55-28.15,56.35,56.35,0,0,1-67.83,28.13Zm0-93.79a37.54,37.54,0,0,0-37.51,37.51A37.55,37.55,0,0,0-67.83,9.37,37.56,37.56,0,0,0-30.31-28.15,37.55,37.55,0,0,0-67.83-65.66Z" transform="translate(161.61 140.69)"/></svg>