<svg id="Layer_1" data-name="Layer 1" xmlns="http://www.w3.org/2000/svg" viewBox="0 0 222.25 137.6"><defs><style>.cls-1{fill:#fff;stroke:#000;stroke-miterlimit:10;}</style></defs><title>eye</title><path class="cls-1" d="M119.2,5.8a236,236,0,0,0-32.7-32,171.78,171.78,0,0,0-34.6-22C37.4-54.9,23.4-58.3,10-58.3s-27.4,3.4-41.9,10.2a171.78,171.78,0,0,0-34.6,22,223.75,223.75,0,0,0-32.7,32,6.76,6.76,0,0,0,0,8.3,236,236,0,0,0,32.7,32,171.78,171.78,0,0,0,34.6,22C-17.5,74.9-3.4,78.3,10,78.3s27.4-3.4,41.9-10.2a171.78,171.78,0,0,0,34.6-22,223.75,223.75,0,0,0,32.7-32A6.76,6.76,0,0,0,119.2,5.8ZM38.4-40.5c10,9.5,15.8,23.3,15.8,38C54.2,25,34.4,47.2,10,47.2S-34.3,25-34.3-2.4c0-14.8,5.7-28.6,15.8-38A83.79,83.79,0,0,1,10-45.8,82.69,82.69,0,0,1,38.4-40.5ZM79.9,36.1C62.9,49.7,37,65.9,10,65.9S-42.9,49.7-59.9,36.2A228,228,0,0,1-87.4,10,223.9,223.9,0,0,1-59.8-16.1,166.25,166.25,0,0,1-39.3-30.3a69.2,69.2,0,0,0-5.9,28c0,34.3,24.8,62.1,55.3,62.1s55.2-28,55.2-62.2a69.2,69.2,0,0,0-5.9-28A174.22,174.22,0,0,1,79.9-16.2,228,228,0,0,1,107.4,10,221.32,221.32,0,0,1,79.9,36.1Z" transform="translate(101.12 58.8)"/></svg>